<svg xmlns="http://www.w3.org/2000/svg" xmlns:xlink="http://www.w3.org/1999/xlink" version="1.1" baseProfile="full" width="239.326" height="243.326" viewBox="0 0 239.33 243.33" enable-background="new 0 0 239.33 243.33" xml:space="preserve">
        <path fill="none" stroke-width="25" stroke-linejoin="round" stroke="#FFFFFF" stroke-opacity="1" d="M 27.9204,51.7607L 28.628,78.4136L 31.087,101.511L 33.337,118.511L 36.2537,129.427L 46.2537,157.427L 55.2537,174.761L 66.7537,192.261L 77.087,203.927L 88.4204,213.927L 97.7537,220.927L 109.754,227.594L 116.087,230.594L 125.754,226.261L 133.754,221.594L 145.087,213.261L 157.42,202.261L 168.42,189.927L 176.42,175.594L 180.754,169.261L 187.087,154.594L 193.087,139.261L 196.754,125.594L 198.754,116.594L 200.42,107.927L 202.42,97.5941L 203.087,86.2608L 204.087,76.5941L 204.754,63.9274L 204.754,54.5941L 204.754,52.2608L 186.42,45.5941L 162.754,39.2608L 151.087,36.9274L 140.754,35.2608L 130.087,33.5941L 118.087,32.9274L 112.42,32.2608L 95.087,33.9274L 60.837,41.2608L 27.9204,51.7607 Z "/>
        <path fill="none" stroke-width="15" stroke-linejoin="round" stroke="#FFC800" stroke-opacity="1" d="M 27.6702,51.5785L 28.3778,78.2315L 30.8369,101.329L 33.0869,118.329L 36.0035,129.245L 46.0035,157.245L 55.0035,174.579L 66.5035,192.079L 76.8369,203.745L 88.1702,213.745L 97.5035,220.745L 109.504,227.412L 115.837,230.412L 125.504,226.079L 133.504,221.412L 144.837,213.079L 157.17,202.079L 168.17,189.745L 176.17,175.412L 180.504,169.079L 186.837,154.412L 192.837,139.079L 196.504,125.412L 198.504,116.412L 200.17,107.745L 202.17,97.412L 202.837,86.0786L 203.837,76.412L 204.504,63.7453L 204.504,54.412L 204.504,52.0786L 186.17,45.412L 162.504,39.0786L 150.837,36.7453L 140.504,35.0786L 129.837,33.412L 117.837,32.7453L 112.17,32.0786L 94.8369,33.7453L 60.5869,41.0786L 27.6702,51.5785 Z "/>
        <path fill="none" stroke-width="10" stroke-linejoin="round" stroke="#FFFFFF" stroke-opacity="1" d="M 99.2167,223.988L 117.292,230.988L 161.528,199.488L 176.749,165.988L 189.628,148.172L 191.019,139.488L 194.73,125.36L 185.505,116.614L 177.203,113.116L 171.668,104.371L 165.556,96.1719L 163.48,88.9569L 159.675,82.3979L 156.562,76.8224L 154.14,74.5269L 156.562,71.9032L 158.637,66.328L 157.599,59.4409L 158.291,54.5215L 158.983,45.9947L 159.329,40.4195L 158.983,30.5807L 158.291,25.0055L 156.908,19.4303L 155.178,13.8551L 153.448,10.9035L 150.681,8.27982L 144.8,8.9357L 142.032,11.8874L 137.535,17.4626L 134.767,23.6938L 130.27,30.5807L 128.54,34.1884L 125.773,37.4678L 123.351,37.4678L 120.584,37.14L 117.816,31.5646L 114.703,24.3496L 111.589,18.4464L 110.206,15.1669L 110.206,8.60782L 110.206,5.98428L 107.784,5.00003L 103.633,16.4785L 100.865,25.3335L 98.7896,32.8765L 98.0977,37.14L 99.1355,42.3872L 97.0599,45.0108L 92.5626,46.3227L 86.6816,49.9302L 81.8384,52.8817L 78.0331,55.8334L 77.3413,58.7851L 77.6871,61.7365L 74.9197,63.0484L 66.2711,63.7043L 57.2767,64.3603L 52.7795,65.3441L 47.9363,67.3119L 42.4012,69.9355L 40.3257,73.215L 40.6716,76.1665L 43.785,77.8063L 43.0931,82.7257L 45.1688,85.0214C 45.1688,85.0214 45.5148,85.6772 47.2444,87.317C 48.9741,88.9569 51.0498,90.5967 51.0498,90.5967L 54.8551,90.9245L 60.7361,91.2525L 64.5415,91.9084L 67.6549,93.8761L 74.5737,94.2041L 72.8441,96.8278L 71.1143,100.435L 68.6927,103.059L 64.8875,105.027L 61.428,106.338L 58.6605,105.683L 55.547,105.027L 52.7795,107.978L 50.7039,111.258L 51.0498,115.193L 52.7795,117.161L 55.547,117.161L 58.6605,116.505L 58.6605,119.129L 60.7361,120.769L 64.5415,122.408L 70.0765,122.408L 75.2656,122.408L 78.725,121.097L 84.2601,119.129L 87.0276,118.801L 87.3735,122.736L 88.4114,125.688L 89.795,129.295L 92.5626,132.903L 93.9464,140.118L 93.2545,144.381L 93.6005,146.677L 95.3301,157.5L 93.9464,169.306L 95.3301,179.8L 96.7139,190.951L 98.7896,196.854L 98.7896,206.693L 96.9446,218.936L 99.2167,223.988 Z "/>
        <path fill="#55555A" fill-opacity="1" stroke-width="0.2" stroke-linejoin="round" d="M 99.0143,223.994L 117.089,230.994L 161.326,199.494L 176.547,165.994L 189.425,148.178L 190.817,139.494L 194.528,125.366L 185.303,116.62L 177,113.122L 171.465,104.376L 165.354,96.1778L 163.278,88.9626L 159.473,82.4035L 156.359,76.8283L 153.938,74.5326L 156.359,71.9091L 158.435,66.3336L 157.397,59.4467L 158.089,54.5274L 158.781,46.0005L 159.127,40.4253L 158.781,30.5866L 158.089,25.0114L 156.705,19.4362L 154.976,13.8609L 153.246,10.9093L 150.478,8.28568L 144.597,8.94156L 141.83,11.8932L 137.333,17.4684L 134.565,23.6996L 130.068,30.5866L 128.338,34.1942L 125.571,37.4737L 123.149,37.4737L 120.381,37.1457L 117.614,31.5705L 114.5,24.3555L 111.387,18.4523L 110.003,15.1728L 110.003,8.61368L 110.003,5.9899L 107.582,5.00589L 103.43,16.4844L 100.663,25.3394L 98.5872,32.8824L 97.8953,37.1457L 98.9332,42.3931L 96.8575,45.0166L 92.3602,46.3285L 86.4793,49.9361L 81.6361,52.8876L 77.8308,55.8393L 77.1389,58.7907L 77.4849,61.7423L 74.7173,63.0542L 66.0688,63.7101L 57.0743,64.3661L 52.5771,65.35L 47.7339,67.3175L 42.199,69.9413L 40.1233,73.2209L 40.4692,76.1724L 43.5826,77.8122L 42.8907,82.7315L 44.9664,85.0273C 44.9664,85.0273 45.3124,85.683 47.0421,87.3229C 48.7718,88.9626 50.8474,90.6024 50.8474,90.6024L 54.6528,90.9303L 60.5338,91.2583L 64.3391,91.9142L 67.4525,93.882L 74.3714,94.21L 72.6417,96.8335L 70.912,100.441L 68.4904,103.065L 64.6851,105.032L 61.2256,106.344L 58.4581,105.688L 55.3446,105.032L 52.5771,107.984L 50.5015,111.264L 50.8474,115.199L 52.5771,117.167L 55.3446,117.167L 58.4581,116.511L 58.4581,119.135L 60.5338,120.774L 64.3391,122.414L 69.8741,122.414L 75.0633,122.414L 78.5227,121.102L 84.0577,119.135L 86.8253,118.807L 87.1712,122.742L 88.209,125.694L 89.5928,129.301L 92.3602,132.909L 93.744,140.124L 93.0521,144.387L 93.3981,146.683L 95.1278,157.505L 93.744,169.312L 95.1278,179.806L 96.5115,190.957L 98.5872,196.86L 98.5872,206.699L 96.7422,218.942L 99.0143,223.994 Z "/>
        <path fill="none" stroke-width="25" stroke-linejoin="round" stroke="#FFFFFF" stroke-opacity="1" d="M 66.0157,192.493L 76.349,204.16L 87.6824,214.16L 97.0157,221.16L 109.016,227.826L 115.349,230.826L 125.016,226.493L 133.016,221.826L 144.349,213.493L 156.682,202.493L 167.682,190.16L 175.682,175.826L 180.016,169.493L 186.349,154.826L 192.349,139.493L 196.016,125.826L 198.016,116.826"/>
        <path fill="none" stroke-width="15" stroke-linejoin="round" stroke="#FFC800" stroke-opacity="1" d="M 66.5013,192.117L 76.8347,203.784L 88.168,213.784L 97.5013,220.784L 109.501,227.451L 115.835,230.451L 125.501,226.117L 133.501,221.451L 144.835,213.117L 157.168,202.117L 168.168,189.784L 176.168,175.451L 180.501,169.117L 186.835,154.451L 192.835,139.117L 196.501,125.451L 198.501,116.451"/>
        <path fill="#058AE7" fill-opacity="1" stroke-width="3" stroke-linejoin="round" stroke="#FFFFFF" stroke-opacity="1" d="M 48.1526,209.383L 44.0959,175.132L 1.5,182.42L 17.7269,198.452L 9.61353,219.586L 48.1526,209.383 Z "/>
        <path fill="#058AE7" fill-opacity="1" stroke-width="3" stroke-linejoin="round" stroke="#FFFFFF" stroke-opacity="1" d="M 228.857,220.984L 220.578,200.21L 237.826,185.371L 195.052,174.984L 188.153,210.597L 228.857,220.984 Z "/>
        <path fill="#FFFFFF" fill-opacity="1" stroke-width="5" stroke-linejoin="round" stroke="#FFFFFF" stroke-opacity="1" d="M 28.0001,168.358L 38.1914,203.424L 48.555,201.694L 62.1187,199.429L 76.1588,197.466L 90.4744,195.653L 99.6133,194.988L 107.091,194.655L 114.9,194.655L 123.707,194.821L 133.843,195.32L 147.8,196.319L 163.935,198.201L 177.543,200.314L 189.067,202.758L 200.366,204.756L 211,168.801L 199.884,165.745L 186.858,162.163L 178.042,160.032L 168.396,158.434L 157.272,156.87L 143.871,155.485L 130.025,154.93L 116.9,154.404L 110.638,154.153L 96.9547,154.373L 86.8187,154.872L 75.0212,156.204L 64.2207,158.035L 55.0287,159.999L 44.4474,162.862L 34.3546,165.969L 28.4432,167.914L 28.0001,168.358 Z "/>
        <path fill="#0096FF" fill-opacity="1" stroke-width="0.2" stroke-linejoin="round" d="M 27.8262,168.188L 38.0175,203.254L 48.3811,201.524L 61.9448,199.259L 75.9849,197.297L 90.3004,195.484L 99.4393,194.818L 106.917,194.485L 114.726,194.485L 123.533,194.652L 133.669,195.151L 147.626,196.15L 163.761,198.031L 177.369,200.145L 188.893,202.589L 200.192,204.586L 210.826,168.632L 199.71,165.575L 186.684,161.993L 177.868,159.863L 168.222,158.264L 157.098,156.7L 143.697,155.316L 129.851,154.761L 116.726,154.235L 110.464,153.984L 96.7808,154.203L 86.6448,154.703L 74.8473,156.034L 64.0468,157.865L 54.8547,159.83L 44.2734,162.693L 34.1805,165.799L 28.2692,167.744"/>
        <g>
                <path fill="#FFFFFF" fill-opacity="1" stroke-width="0.2" stroke-linejoin="round" d="M 56.1487,184.564C 56.0079,183.72 55.5862,183.062 54.8837,182.591C 54.1812,182.12 53.0294,181.812 51.4283,181.668C 49.4482,181.514 47.849,181.069 46.6307,180.334C 45.4122,179.598 44.6876,178.538 44.4566,177.154C 44.2129,175.694 44.5836,174.381 45.5691,173.215C 46.5544,172.05 47.9636,171.314 49.7966,171.008C 51.7638,170.679 53.4248,170.975 54.7795,171.895C 56.1342,172.815 56.9191,174.021 57.1341,175.511L 57.1094,175.591L 54.6929,175.995C 54.5159,174.934 53.9991,174.12 53.1425,173.552C 52.2859,172.984 51.2808,172.796 50.1273,172.989C 48.9437,173.186 48.0853,173.624 47.5521,174.302C 47.0189,174.979 46.8287,175.776 46.9814,176.691C 47.1168,177.502 47.5745,178.122 48.3543,178.55C 49.1342,178.979 50.3336,179.268 51.9525,179.418C 53.9161,179.591 55.4698,180.07 56.6132,180.855C 57.7567,181.64 58.4446,182.729 58.677,184.121C 58.928,185.625 58.5369,186.933 57.5032,188.046C 56.4696,189.16 54.998,189.876 53.0884,190.194C 51.2828,190.496 49.6051,190.261 48.0555,189.488C 46.5059,188.716 45.6111,187.486 45.3713,185.797L 45.3816,185.681L 47.7941,185.278C 47.9893,186.448 48.5853,187.277 49.5818,187.764C 50.5784,188.251 51.637,188.401 52.7576,188.214C 53.9576,188.013 54.8614,187.586 55.4688,186.931C 56.0762,186.276 56.3029,185.487 56.1487,184.564 Z "/>
                <path fill="#FFFFFF" fill-opacity="1" stroke-width="0.2" stroke-linejoin="round" d="M 68.3214,182.583L 68.9644,184.084L 69.0387,184.073L 69.2498,182.453L 72.165,167.943L 74.9092,167.56L 70.5564,187.286L 68.3734,187.591L 58.7786,169.815L 61.5392,169.429L 68.3214,182.583 Z "/>
                <path fill="#FFFFFF" fill-opacity="1" stroke-width="0.2" stroke-linejoin="round" d="M 93.4769,176.488C 93.7677,178.784 93.2965,180.778 92.0635,182.472C 90.8303,184.165 89.077,185.156 86.8035,185.444C 84.6072,185.722 82.7263,185.192 81.1609,183.853C 79.5956,182.514 78.6675,180.697 78.3768,178.401L 77.9542,175.065C 77.6646,172.778 78.1102,170.787 79.2913,169.091C 80.4724,167.396 82.1611,166.41 84.3575,166.132C 86.631,165.844 88.5762,166.368 90.193,167.704C 91.8099,169.041 92.7637,170.857 93.0545,173.153L 93.4769,176.488 Z M 90.5054,173.421C 90.2852,171.682 89.6395,170.315 88.5685,169.319C 87.4974,168.324 86.1779,167.925 84.6099,168.124C 83.1273,168.312 82.0155,169.018 81.2747,170.243C 80.5338,171.468 80.2736,172.95 80.4938,174.689L 80.9252,178.095C 81.1475,179.85 81.7701,181.229 82.793,182.231C 83.8158,183.232 85.0686,183.639 86.5511,183.452C 88.1274,183.252 89.3083,182.539 90.0938,181.312C 90.8792,180.086 91.1602,178.591 90.9369,176.827L 90.5054,173.421 Z M 88.7237,163.697L 85.8962,164.055L 85.5612,161.41L 88.3885,161.051L 88.7237,163.697 Z M 82.6555,164.465L 79.824,164.824L 79.4888,162.179L 82.3204,161.82L 82.6555,164.465 Z "/>
                <path fill="#FFFFFF" fill-opacity="1" stroke-width="0.2" stroke-linejoin="round" d="M 120.607,176.04C 120.607,178.353 119.889,180.273 118.453,181.798C 117.017,183.323 115.153,184.085 112.861,184.085C 110.647,184.085 108.848,183.323 107.463,181.798C 106.078,180.273 105.386,178.353 105.386,176.04L 105.386,172.677C 105.386,170.371 106.078,168.452 107.463,166.919C 108.848,165.385 110.647,164.619 112.861,164.619C 115.153,164.619 117.017,165.383 118.453,166.913C 119.889,168.442 120.607,170.363 120.607,172.677L 120.607,172.677 Z M 118.044,172.623C 118.044,170.87 117.576,169.433 116.638,168.31C 115.701,167.188 114.442,166.627 112.861,166.627C 111.367,166.627 110.175,167.188 109.286,168.31C 108.397,169.433 107.953,170.87 107.953,172.623L 107.953,176.056C 107.953,177.826 108.397,179.272 109.286,180.394C 110.175,181.516 111.367,182.077 112.861,182.077C 114.45,182.077 115.711,181.518 116.644,180.4C 117.578,179.282 118.044,177.834 118.044,176.056L 118.044,172.623 Z "/>
                <path fill="#FFFFFF" fill-opacity="1" stroke-width="0.2" stroke-linejoin="round" d="M 138.526,182.145C 138.042,182.825 137.229,183.433 136.086,183.969C 134.943,184.505 133.482,184.729 131.704,184.642C 129.517,184.534 127.745,183.722 126.386,182.206C 125.027,180.69 124.404,178.787 124.517,176.495L 124.709,172.6C 124.822,170.308 125.603,168.473 127.053,167.096C 128.503,165.718 130.316,165.083 132.491,165.19C 134.599,165.294 136.237,165.936 137.404,167.116C 138.571,168.295 139.094,169.751 138.972,171.483L 138.944,171.557L 136.489,171.436C 136.545,170.285 136.219,169.307 135.511,168.503C 134.802,167.699 133.763,167.264 132.392,167.196C 130.944,167.125 129.751,167.608 128.814,168.647C 127.877,169.685 127.368,171.034 127.286,172.693L 127.093,176.613C 127.01,178.292 127.411,179.697 128.293,180.83C 129.176,181.962 130.346,182.564 131.803,182.636C 132.921,182.691 133.814,182.59 134.483,182.332C 135.152,182.074 135.658,181.754 135.999,181.37L 136.209,177.104L 131.914,176.893L 132.013,174.891L 138.867,175.229L 138.526,182.145 Z "/>
                <path fill="#FFFFFF" fill-opacity="1" stroke-width="0.2" stroke-linejoin="round" d="M 157.224,186.53L 154.662,186.231L 156.593,169.677L 152.492,169.199L 152.72,167.241L 159.465,167.315L 157.224,186.53 Z "/>
                <path fill="#FFFFFF" fill-opacity="1" stroke-width="0.2" stroke-linejoin="round" d="M 176.848,189.269L 165.216,187.463L 165.487,185.722L 172.453,179.635C 173.696,178.529 174.562,177.631 175.052,176.939C 175.542,176.248 175.845,175.522 175.964,174.762C 176.098,173.895 175.955,173.146 175.534,172.515C 175.114,171.885 174.457,171.501 173.565,171.362C 172.459,171.19 171.564,171.398 170.88,171.984C 170.195,172.571 169.775,173.369 169.618,174.379L 167.176,174.0L 167.16,173.918C 167.355,172.388 168.067,171.178 169.294,170.288C 170.522,169.397 172.048,169.094 173.873,169.377C 175.548,169.637 176.794,170.305 177.611,171.379C 178.428,172.453 178.722,173.722 178.495,175.185C 178.342,176.17 177.92,177.091 177.229,177.948C 176.538,178.805 175.525,179.856 174.19,181.102L 168.61,185.89L 168.625,185.96L 177.156,187.285L 176.848,189.269 Z "/>
                <path fill="#FFFFFF" fill-opacity="1" stroke-width="0.2" stroke-linejoin="round" d="M 182.604,181.743L 185.853,171.686L 195.143,173.656L 194.645,176.004L 187.471,174.482L 185.75,179.646C 186.212,179.434 186.705,179.286 187.229,179.199C 187.752,179.113 188.326,179.132 188.95,179.256C 190.668,179.603 191.898,180.42 192.641,181.706C 193.383,182.992 193.554,184.578 193.154,186.464C 192.764,188.306 191.951,189.682 190.716,190.59C 189.482,191.498 187.909,191.749 185.999,191.344C 184.428,191.011 183.211,190.304 182.349,189.224C 181.486,188.143 181.253,186.776 181.649,185.123L 181.69,185.05L 183.956,185.531C 183.742,186.542 183.866,187.387 184.33,188.066C 184.794,188.745 185.489,189.183 186.415,189.379C 187.478,189.605 188.381,189.406 189.125,188.785C 189.869,188.163 190.378,187.204 190.653,185.908C 190.903,184.729 190.81,183.712 190.373,182.858C 189.937,182.005 189.193,181.466 188.141,181.244C 187.155,181.034 186.409,181.031 185.905,181.233C 185.4,181.436 184.977,181.825 184.633,182.399L 182.604,181.743 Z "/>
        </g>
</svg>
